<svg xmlns="http://www.w3.org/2000/svg" width="177" height="48" viewBox="0 0 177 48">
  <metadata><?xpacket begin="﻿" id="W5M0MpCehiHzreSzNTczkc9d"?>
<x:xmpmeta xmlns:x="adobe:ns:meta/" x:xmptk="Adobe XMP Core 5.6-c142 79.160924, 2017/07/13-01:06:39        ">
   <rdf:RDF xmlns:rdf="http://www.w3.org/1999/02/22-rdf-syntax-ns#">
      <rdf:Description rdf:about=""/>
   </rdf:RDF>
</x:xmpmeta>
                                                                                                    
                                                                                                    
                                                                                                    
                                                                                                    
                                                                                                    
                                                                                                    
                                                                                                    
                                                                                                    
                                                                                                    
                                                                                                    
                                                                                                    
                                                                                                    
                                                                                                    
                                                                                                    
                                                                                                    
                                                                                                    
                                                                                                    
                                                                                                    
                                                                                                    
                                                                                                    
                           
<?xpacket end="w"?></metadata>
<defs>
    <style>
      .cls-1 {
        fill: #ba1700;
        fill-rule: evenodd;
      }
    </style>
  </defs>
  <path id="Forma_1" data-name="Forma 1" class="cls-1" d="M504.155,1615.24l-3.327,7.04h-8.841l15.824-28.73h10.85l4.719,28.73h-8.832l-0.639-7.04h-9.754Zm8.211-17.19-5.691,12.08h6.7Zm37.623,24.23h-5.936s-2.5-.12-3.493-0.89-1.931-3.43-1.931-3.43l-2.269-6.26h-1.415l-2.046,10.58h-8.261l5.556-28.73H540.38c5.728,0,12.6,1.41,11.117,9.06a9.647,9.647,0,0,1-7.511,7.93l6,11.74h0Zm-11.776-15.69c2.765,0,4.258-1.26,4.756-3.83,0.491-2.54-.286-4-3.462-4h-2.136l-1.513,7.83h2.355Zm37.445-7.87H568.41l-4.556,23.56h-8.265l4.557-23.56h-7.258l1-5.17h22.769Zm1.926,16.52-3.327,7.04h-8.842l15.823-28.73h7.772c0.756,1.01,1.441,1.95,1.9,2.64,0.677,1.01,1.371,2,2.1,2.97l3.8,23.12h-8.834l-0.638-7.04h-9.753Zm8.21-17.19-5.691,12.08h6.7Zm22.823,3.65c-0.26,1.78-.906,5.01-1.481,8.19a41.146,41.146,0,0,1-6.571-4.39l2.309-11.95h6.79s4.224-.31,5.776,4.53c2.5,7.41,4.972,15.9,4.972,15.9,0.545-3.85,1.709-10.57,3.538-20.02l0.079-.41h7.613l-4.048,20.76a33.233,33.233,0,0,1-6.5-.09l-0.033-.01H621.03l-0.039-.01h-0.04l-0.08-.01-0.058-.01h-0.06l-0.128-.02-0.04-.01a38.338,38.338,0,0,1-8.653-2.11c-1.338-4.14-2.808-8.26-3.315-10.34h0Zm13.154,15.89a35.845,35.845,0,0,0,5.145.4l-0.83,4.29H618.5a5.707,5.707,0,0,1-4.807-4.14c-0.354-1.06-.691-2.07-1.011-3.04a40.574,40.574,0,0,0,8.82,2.45h0.044l0.043,0.01,0.043,0.01h0.044l0.042,0.01,0.041,0.01h0.011Zm-14.929-5.43a43.86,43.86,0,0,1-6.606-4.97l-2.918,15.09h7.613l0.079-.41Q606.071,1616.4,606.842,1612.16Zm36.749-4.91a40.24,40.24,0,0,0,6.274-8.66,36.512,36.512,0,0,0,4.575-14.6h14.569s-5.058,12.32-14.388,21.65a45.864,45.864,0,0,1-8.514,6.72l-1.945,9.92h-8.543l1.118-5.74a35.414,35.414,0,0,0,9.364-4.17l-2.51-5.12a22.188,22.188,0,0,1-6.393,4.39l-5.435-18.09h9.114Zm10.084,13.42c0.146-.01.292-0.03,0.438-0.03s0.293,0.02.44,0.03v-1.85h0.041c0.128,0.22.292,0.48,0.38,0.64l0.7,1.21c0.175-.01.351-0.03,0.526-0.03s0.357,0.02.532,0.03l-0.228-.36c-0.351-.53-0.714-1.07-1.035-1.62a1.036,1.036,0,0,0,.912-1.04,0.877,0.877,0,0,0-.509-0.83,2.312,2.312,0,0,0-.947-0.11h-1.246v3.96h0Zm0.878-3.65c0.356,0,.795-0.05.889,0.43a1.472,1.472,0,0,1,.028.29,0.735,0.735,0,0,1-.917.83v-1.55Zm-2.457,1.71a2.916,2.916,0,1,0,2.916-2.89,2.9,2.9,0,0,0-2.916,2.89h0Zm-0.672,0a3.588,3.588,0,1,1,3.588,3.54A3.569,3.569,0,0,1,651.424,1618.73Zm-92.6,7.38-1.172,3.11h2.3l-1.127-3.11h0Zm-0.807-1.15h1.662l2.7,6.91H560.9l-0.582-1.64h-3.045l-0.606,1.64H555.3l2.721-6.91h0Zm8.1,1.78-0.049,1.17a1.479,1.479,0,0,0-.216-0.05,1.8,1.8,0,0,0-.237-0.02,1.205,1.205,0,0,0-.99.43,1.953,1.953,0,0,0-.339,1.24v2.36H562.98v-5.05h1.175v1.01a2.045,2.045,0,0,1,.624-0.85,1.6,1.6,0,0,1,1.085-.27c0.072,0.01.156,0.02,0.255,0.03h0Zm2.593-1.57v1.65h1.232v0.95h-1.232v2.22a1.438,1.438,0,0,0,.178.81,0.672,0.672,0,0,0,.58.24,0.979,0.979,0,0,0,.232-0.02,1.518,1.518,0,0,0,.27-0.07l0.02,0.91a3.229,3.229,0,0,1-.448.09,3.53,3.53,0,0,1-.457.03,1.682,1.682,0,0,1-1.3-.44,2.23,2.23,0,0,1-.394-1.48v-2.29h-1.009v-0.95h1.069v-1.23l1.259-.42h0Zm6.82,4.12v0.41h-3.6a1.384,1.384,0,0,0,.5,1,1.759,1.759,0,0,0,1.174.37,3.318,3.318,0,0,0,.774-0.09,3.254,3.254,0,0,0,.725-0.28v1a4.717,4.717,0,0,1-.806.23,6.712,6.712,0,0,1-.925.07,2.673,2.673,0,0,1-2-.73,2.717,2.717,0,0,1-.72-2.01,2.523,2.523,0,0,1,.7-1.86,2.434,2.434,0,0,1,1.829-.71,2.195,2.195,0,0,1,1.729.68,2.782,2.782,0,0,1,.618,1.92h0Zm-1.186-.4a1.7,1.7,0,0,0-.365-1,1.012,1.012,0,0,0-.806-0.36,1.084,1.084,0,0,0-.836.36,1.714,1.714,0,0,0-.4,1h2.41Zm8.227,0.4v0.41h-3.6a1.391,1.391,0,0,0,.5,1,1.761,1.761,0,0,0,1.174.37,3.311,3.311,0,0,0,.774-0.09,3.243,3.243,0,0,0,.726-0.28v1a4.717,4.717,0,0,1-.806.23,6.712,6.712,0,0,1-.925.07,2.672,2.672,0,0,1-2-.73,2.717,2.717,0,0,1-.72-2.01,2.523,2.523,0,0,1,.7-1.86,2.434,2.434,0,0,1,1.829-.71,2.195,2.195,0,0,1,1.729.68,2.781,2.781,0,0,1,.617,1.92h0Zm-1.185-.4a1.7,1.7,0,0,0-.365-1,1.012,1.012,0,0,0-.806-0.36,1.082,1.082,0,0,0-.836.36,1.715,1.715,0,0,0-.4,1h2.411Zm6.717-1.12a2.038,2.038,0,0,1,.745-0.8,2.006,2.006,0,0,1,1.05-.27,1.492,1.492,0,0,1,1.26.56,2.529,2.529,0,0,1,.443,1.6v3.01h-1.308v-2.73a1.887,1.887,0,0,0-.217-1.02,0.738,0.738,0,0,0-.663-0.33,1,1,0,0,0-.847.42,1.876,1.876,0,0,0-.311,1.15v2.51h-1.308v-2.73a1.877,1.877,0,0,0-.218-1.02,0.753,0.753,0,0,0-.672-0.33,1,1,0,0,0-.847.42,1.876,1.876,0,0,0-.31,1.15v2.51h-1.3v-5.05h1.186v0.91a2,2,0,0,1,.733-0.77,1.937,1.937,0,0,1,1.032-.26,1.584,1.584,0,0,1,.934.28A1.761,1.761,0,0,1,588.105,1627.77Zm6.432-2.81h4.271v0.99h-2.894v1.83h2.743v1.02h-2.743v2.02h3v1.05h-4.375v-6.91h0Zm8.964,2.01-0.1.96a3.84,3.84,0,0,0-.669-0.26,2.479,2.479,0,0,0-.655-0.09,1.015,1.015,0,0,0-.542.12,0.378,0.378,0,0,0-.19.34,1.057,1.057,0,0,0,.8.69,1.165,1.165,0,0,0,.133.06,3.225,3.225,0,0,1,1.132.71,1.249,1.249,0,0,1,.311.86,1.332,1.332,0,0,1-.581,1.14,2.652,2.652,0,0,1-1.584.42,5.018,5.018,0,0,1-1.584-.26l0.074-1a3.463,3.463,0,0,0,.744.27,3.293,3.293,0,0,0,.756.09,1.131,1.131,0,0,0,.6-0.13,0.383,0.383,0,0,0,.214-0.35,1.5,1.5,0,0,0-1.013-.88,0.039,0.039,0,0,0-.025-0.01,3.325,3.325,0,0,1-1.023-.69,1.165,1.165,0,0,1-.265-0.77,1.276,1.276,0,0,1,.567-1.08,2.456,2.456,0,0,1,1.494-.42,3.75,3.75,0,0,1,.545.05c0.2,0.05.486,0.12,0.857,0.23h0Zm5.151-.03-0.1,1.02a5.2,5.2,0,0,0-.6-0.2,1.847,1.847,0,0,0-.432-0.06,1.608,1.608,0,0,0-1.189.45,1.587,1.587,0,0,0-.45,1.18,1.626,1.626,0,0,0,.45,1.19,1.551,1.551,0,0,0,1.169.46,1.959,1.959,0,0,0,.529-0.07,3.882,3.882,0,0,0,.6-0.26l0.049,1.04a8.183,8.183,0,0,1-.853.25,3.036,3.036,0,0,1-.578.06,2.723,2.723,0,0,1-2-.74,2.623,2.623,0,0,1-.746-1.96,2.469,2.469,0,0,1,.77-1.87,2.688,2.688,0,0,1,1.961-.74,4.655,4.655,0,0,1,1.161.19c0.111,0.03.195,0.05,0.25,0.06h0Zm4.282-.2-0.049,1.17a1.462,1.462,0,0,0-.217-0.05,1.774,1.774,0,0,0-.237-0.02,1.2,1.2,0,0,0-.989.43,1.953,1.953,0,0,0-.339,1.24v2.36h-1.309v-5.05h1.176v1.01a2.061,2.061,0,0,1,.623-0.85,1.423,1.423,0,0,1,.887-0.28,1.388,1.388,0,0,1,.2.01c0.073,0.01.157,0.02,0.256,0.03h0Zm0.821,0.08h1.309v5.05h-1.309v-5.05h0Zm0-2.26h1.309v1.25h-1.309v-1.25h0Zm4.572,0.61v1.65h1.231v0.95h-1.231v2.22a1.438,1.438,0,0,0,.178.81,0.672,0.672,0,0,0,.58.24,0.971,0.971,0,0,0,.231-0.02,1.505,1.505,0,0,0,.271-0.07l0.02,0.91a3.214,3.214,0,0,1-.449.09,3.5,3.5,0,0,1-.456.03,1.682,1.682,0,0,1-1.3-.44,2.225,2.225,0,0,1-.394-1.48v-2.29H616v-0.95h1.068v-1.23l1.26-.42h0Zm4.665,2.46a1.161,1.161,0,0,0-.968.47,1.916,1.916,0,0,0-.371,1.23,1.955,1.955,0,0,0,.371,1.23,1.253,1.253,0,0,0,1.94,0,2.259,2.259,0,0,0,0-2.47,1.173,1.173,0,0,0-.969-0.46h0Zm0-.94a2.74,2.74,0,0,1,2,.7,2.591,2.591,0,0,1,.725,1.95,2.62,2.62,0,0,1-.728,1.95,3.144,3.144,0,0,1-3.98,0,3,3,0,0,1,0-3.9,2.724,2.724,0,0,1,1.991-.7h0Zm0.22-2.3h1.152l-1.507,1.75h-0.625l0.98-1.75h0Zm6.82,2.35-0.048,1.17a1.462,1.462,0,0,0-.217-0.05,1.774,1.774,0,0,0-.237-0.02,1.2,1.2,0,0,0-.989.43,1.947,1.947,0,0,0-.339,1.24v2.36h-1.308v-5.05h1.175v1.01a2.061,2.061,0,0,1,.623-0.85,1.421,1.421,0,0,1,.887-0.28,1.388,1.388,0,0,1,.2.01c0.073,0.01.157,0.02,0.255,0.03h0Zm0.822,0.08h1.308v5.05h-1.308v-5.05h0Zm0-2.26h1.308v1.25h-1.308v-1.25h0Zm5.186,3.07a1.16,1.16,0,0,0-.967.47,1.916,1.916,0,0,0-.371,1.23,1.955,1.955,0,0,0,.371,1.23,1.253,1.253,0,0,0,1.94,0,2.259,2.259,0,0,0,0-2.47,1.174,1.174,0,0,0-.97-0.46h0Zm0-.94a2.741,2.741,0,0,1,2,.7,2.976,2.976,0,0,1,0,3.9,3.141,3.141,0,0,1-3.978,0,2.993,2.993,0,0,1,0-3.9,2.719,2.719,0,0,1,1.989-.7h0Zm7.144,0.28-0.1.96a3.831,3.831,0,0,0-.668-0.26,2.49,2.49,0,0,0-.655-0.09,1.017,1.017,0,0,0-.543.12,0.378,0.378,0,0,0-.19.34,1.057,1.057,0,0,0,.8.69,1.25,1.25,0,0,0,.133.06,3.215,3.215,0,0,1,1.132.71,1.244,1.244,0,0,1,.311.86,1.332,1.332,0,0,1-.581,1.14,2.652,2.652,0,0,1-1.584.42,5.018,5.018,0,0,1-1.584-.26l0.074-1a3.444,3.444,0,0,0,.744.27,3.293,3.293,0,0,0,.756.09,1.135,1.135,0,0,0,.6-0.13,0.384,0.384,0,0,0,.213-0.35,1.5,1.5,0,0,0-1.013-.88,0.037,0.037,0,0,0-.025-0.01,3.325,3.325,0,0,1-1.023-.69,1.165,1.165,0,0,1-.265-0.77,1.279,1.279,0,0,1,.567-1.08,2.456,2.456,0,0,1,1.494-.42,3.763,3.763,0,0,1,.546.05C642.529,1626.79,642.813,1626.86,643.184,1626.97Z" transform="translate(-492 -1584)"/>
</svg>
